# xmcd
#
# Track frame offsets: 
#        150
#        17100
#        29932
#        44862
#        57535
#        71040
#        85425
#        99602
#        112854
#        127600
#        142882
#        155295
#        169952
#        183985
#        199390
#        213282
#
# Disc length: 3044 seconds
#
# Revision: 0
# Processed by: cddbd v1.4PL0 Copyright (c) Steve Scherf et al.
# Submitted via: ExactAudioCopy v0.90b4
#
DISCID=ec0be210
DTITLE=Billie Holiday - The Hit Collection
DYEAR=1995
DGENRE=Blues
TTITLE0=Lady Sings The Blues
TTITLE1=I Gotta Right To Sing The Blues
TTITLE2=Now Or Never
TTITLE3=I Cover The Waterfront
TTITLE4=My Old Flame
TTITLE5=God Bless The Child
TTITLE6=Solitude
TTITLE7=I'll Get By
TTITLE8=Keeps On Rainin'
TTITLE9=Yesterdays
TTITLE10=Gimme A Pigfoot (And A Bottle Of Beer)
TTITLE11=Do Your Duty
TTITLE12=Strange Fruit
TTITLE13=Lover Man (Oh, Where Can You Be?)
TTITLE14=Crazy He Calls Me
TTITLE15=You're My Thrill
EXTD=
EXTT0=
EXTT1=
EXTT2=
EXTT3=
EXTT4=
EXTT5=
EXTT6=
EXTT7=
EXTT8=
EXTT9=
EXTT10=
EXTT11=
EXTT12=
EXTT13=
EXTT14=
EXTT15=
PLAYORDER=
